<svg xmlns="http://www.w3.org/2000/svg" viewBox="0 0 1500 1500" class="yXJMw" preserveAspectRatio="xMidYMid meet"><defs><clipPath id="__lottie_element_78"><rect width="1500" height="1500" x="0" y="0"></rect></clipPath><linearGradient id="__lottie_element_87" spreadMethod="pad" gradientUnits="userSpaceOnUse" x1="11.385000228881836" y1="13.565999984741211" x2="23.400999069213867" y2="24.1299991607666"><stop offset="0%" stop-color="rgb(0,0,0)" stop-opacity="0"></stop><stop offset="50%" stop-color="rgb(0,0,0)" stop-opacity="0.10000000149011612"></stop><stop offset="100%" stop-color="rgb(0,0,0)" stop-opacity="0.20000000298023224"></stop></linearGradient><filter id="__lottie_element_92" filterUnits="objectBoundingBox" x="0%" y="0%" width="100%" height="100%"><feComponentTransfer in="SourceGraphic"><feFuncA type="table" tableValues="1.0 0.0"></feFuncA></feComponentTransfer></filter><mask id="__lottie_element_91" mask-type="alpha"><g filter="url(#__lottie_element_92)"><rect width="1500" height="1500" x="0" y="0" fill="#ffffff" opacity="0"></rect><g transform="matrix(1,0,0,1,500,250)" opacity="1" style="display: block;"><g opacity="1" transform="matrix(31.25,0,0,31.25,0,0)"><path fill="url(#__lottie_element_95)" fill-rule="evenodd" fill-opacity="1" d=" M12,0 C18.622800827026367,0 24,5.377200126647949 24,12 C24,18.622800827026367 18.622800827026367,24 12,24 C5.377200126647949,24 0,18.622800827026367 0,12 C0,5.377200126647949 5.377200126647949,0 12,0z"></path><path fill-rule="evenodd" fill="rgb(240,242,244)" fill-opacity="0.8" d=" M12,0 C18.622800827026367,0 24,5.377200126647949 24,12 C24,18.622800827026367 18.622800827026367,24 12,24 C5.377200126647949,24 0,18.622800827026367 0,12 C0,5.377200126647949 5.377200126647949,0 12,0z"></path></g></g></g></mask><linearGradient id="__lottie_element_95" spreadMethod="pad" gradientUnits="userSpaceOnUse" x1="11.385000228881836" y1="13.565999984741211" x2="23.400999069213867" y2="24.1299991607666"><stop offset="0%" stop-color="rgb(0,0,0)" stop-opacity="0"></stop><stop offset="50%" stop-color="rgb(0,0,0)" stop-opacity="0.10000000149011612"></stop><stop offset="100%" stop-color="rgb(0,0,0)" stop-opacity="0.20000000298023224"></stop></linearGradient></defs><g clip-path="url(#__lottie_element_78)"><g mask="url(#__lottie_element_91)" style="display: block;"><g transform="matrix(1,0,0,1,250,687.5)" opacity="0.9999901369111065"><g opacity="1" transform="matrix(31.25,0,0,31.25,0,0)"><path fill="rgb(240,242,244)" fill-opacity="1" d=" M10,0 C4.480000019073486,0 0,4.480000019073486 0,10 C0.009999999776482582,9.979999542236328 20.010000228881836,9.979999542236328 20,10 C20,4.480000019073486 15.520000457763672,0 10,0z"></path></g></g></g><g transform="matrix(1,0,0,1,728.75,731)" opacity="1" style="display: block;"><path stroke-linecap="butt" stroke-linejoin="miter" fill-opacity="0" stroke-miterlimit="4" stroke="rgb(251,188,4)" stroke-opacity="1" stroke-width="30" d=" M-224.63,-466.44 C-92.39,-466.44 14.98,-360.81 14.98,-230.72 C14.98,-100.63 -92.39,5 -224.63,5 C-356.88,5 -464.25,-100.63 -464.25,-230.72 C-464.25,-360.81 -356.88,-466.44 -224.63,-466.44z"></path><g opacity="1" transform="matrix(1.3110100030899048,0,0,1.2896699905395508,-224.63424682617188,-230.71823120117188)"></g></g><g transform="matrix(1,0,0,1,500,250)" opacity="1" style="display: block;"><g opacity="1" transform="matrix(31.25,0,0,31.25,0,0)"><path fill="url(#__lottie_element_87)" fill-rule="evenodd" fill-opacity="0.5" d=" M12,0 C18.622800827026367,0 24,5.377200126647949 24,12 C24,18.622800827026367 18.622800827026367,24 12,24 C5.377200126647949,24 0,18.622800827026367 0,12 C0,5.377200126647949 5.377200126647949,0 12,0z"></path><path fill-rule="evenodd" fill="rgb(240,242,244)" fill-opacity="0.8" d=" M12,0 C18.622800827026367,0 24,5.377200126647949 24,12 C24,18.622800827026367 18.622800827026367,24 12,24 C5.377200126647949,24 0,18.622800827026367 0,12 C0,5.377200126647949 5.377200126647949,0 12,0z"></path></g></g><g transform="matrix(21.87999725341797,0,0,21.87999725341797,720.6924438476562,717.43994140625)" opacity="1" style="display: block;"><g opacity="1" transform="matrix(1,0,0,1,0,0)"><path fill="rgb(223,224,228)" fill-opacity="1" d=" M24,12 C24,5.373000144958496 18.62700080871582,0 12,0 C5.373000144958496,0 0,5.373000144958496 0,12 C0,12.612000465393066 0.061000000685453415,13.208000183105469 0.14900000393390656,13.795000076293945 C-4.5970001220703125,14.767000198364258 -8.166999816894531,18.966999053955078 -8.166999816894531,24 C-8.166999816894531,24 12.666999816894531,24 12.666999816894531,24 C12.666999816894531,23.98900032043457 12.664999961853027,23.976999282836914 12.664999961853027,23.965999603271484 C18.981000900268555,23.618999481201172 24,18.402999877929688 24,12z"></path></g></g></g></svg>