<svg xmlns="http://www.w3.org/2000/svg" viewBox="0 0 1500 1500" class="yXJMw" preserveAspectRatio="xMidYMid meet"><defs><clipPath id="__lottie_element_138"><rect width="1500" height="1500" x="0" y="0"></rect></clipPath><mask id="__lottie_element_143" mask-type="alpha"><g transform="matrix(0.6499999761581421,0,0,0.6499999761581421,587.5,763.3997192382812)" opacity="1" style="display: block;"><g opacity="1" transform="matrix(31.25,0,0,31.25,0,0)"><path fill="rgb(0,0,0)" fill-opacity="1" d=" M12,0 C18.622800827026367,0 24,5.377200126647949 24,12 C24,18.622800827026367 18.622800827026367,24 12,24 C5.377200126647949,24 0,18.622800827026367 0,12 C0,5.377200126647949 5.377200126647949,0 12,0z"></path></g></g></mask><linearGradient id="__lottie_element_151" spreadMethod="pad" gradientUnits="userSpaceOnUse" x1="96.4540023803711" y1="178.56300354003906" x2="-104.08999633789062" y2="14.630999565124512"><stop offset="1%" stop-color="rgb(252,211,92)" stop-opacity="0"></stop><stop offset="50%" stop-color="rgb(252,211,92)" stop-opacity="0.5"></stop><stop offset="100%" stop-color="rgb(252,211,92)" stop-opacity="1"></stop></linearGradient><linearGradient id="__lottie_element_156" spreadMethod="pad" gradientUnits="userSpaceOnUse" x1="-37.540000915527344" y1="40.926998138427734" x2="-17.993000030517578" y2="54.68899917602539"><stop offset="0%" stop-color="rgb(241,243,244)"></stop><stop offset="50%" stop-color="rgb(231,232,232)"></stop><stop offset="100%" stop-color="rgb(220,220,220)"></stop></linearGradient><linearGradient id="__lottie_element_160" spreadMethod="pad" gradientUnits="userSpaceOnUse" x1="-231.8000030517578" y1="-233.33200073242188" x2="14.755999565124512" y2="20.461999893188477"><stop offset="0%" stop-color="rgb(255,235,175)"></stop><stop offset="50%" stop-color="rgb(253,211,90)"></stop><stop offset="100%" stop-color="rgb(251,188,4)"></stop></linearGradient></defs><g clip-path="url(#__lottie_element_138)"><g transform="matrix(1.4667999744415283,0,0,1.4667999744415283,1102.0927734375,991.7191772460938)" opacity="0.9999902373316079" style="display: block;"><g opacity="1" transform="matrix(1.2410099506378174,0,0,1.220810055732727,-239.30288696289062,-245.065673828125)"><path fill="url(#__lottie_element_160)" fill-opacity="1" d=" M0,-208.77349853515625 C115.22209167480469,-208.77349853515625 208.77349853515625,-115.22209167480469 208.77349853515625,0 C208.77349853515625,115.22209167480469 115.22209167480469,208.77349853515625 0,208.77349853515625 C-115.22209167480469,208.77349853515625 -208.77349853515625,115.22209167480469 -208.77349853515625,0 C-208.77349853515625,-115.22209167480469 -115.22209167480469,-208.77349853515625 0,-208.77349853515625z"></path></g></g><g transform="matrix(20.259998321533203,0,0,20.259998321533203,1525.57861328125,214.26156616210938)" opacity="0.9999929629629131" style="display: block;"><g opacity="1" transform="matrix(1,0,0,1,0,0)"><path fill="url(#__lottie_element_156)" fill-opacity="1" d=" M-34.25,27.08300018310547 C-40.87699890136719,27.08300018310547 -46.25,32.45600128173828 -46.25,39.08300018310547 C-46.25,39.82500076293945 -46.17300033569336,40.54800033569336 -46.04399871826172,41.25299835205078 C-50.70899963378906,42.099998474121094 -54.25,46.17399978637695 -54.25,51.08300018310547 C-54.25,51.08300018310547 -34.25,51.08300018310547 -34.25,51.08300018310547 C-27.62299919128418,51.08300018310547 -22.25,45.709999084472656 -22.25,39.08300018310547 C-22.25,32.45600128173828 -27.62299919128418,27.08300018310547 -34.25,27.08300018310547z"></path></g></g><g mask="url(#__lottie_element_143)" style="display: block;"><g transform="matrix(1.4667999744415283,0,0,1.4667999744415283,1102.0927734375,991.7191772460938)" opacity="1"><g opacity="1" transform="matrix(1.2410099506378174,0,0,1.220810055732727,-239.30288696289062,-245.065673828125)"><path fill="url(#__lottie_element_151)" fill-opacity="1" d=" M0,-208.77349853515625 C115.22209167480469,-208.77349853515625 208.77349853515625,-115.22209167480469 208.77349853515625,0 C208.77349853515625,115.22209167480469 115.22209167480469,208.77349853515625 0,208.77349853515625 C-115.22209167480469,208.77349853515625 -208.77349853515625,115.22209167480469 -208.77349853515625,0 C-208.77349853515625,-115.22209167480469 -115.22209167480469,-208.77349853515625 0,-208.77349853515625z"></path></g></g></g><g transform="matrix(0.6499999761581421,0,0,0.6499999761581421,585.5,763.4000244140625)" opacity="0.7000000000000001" style="display: block;"><g opacity="1" transform="matrix(31.25,0,0,31.25,-235,432)"><path fill="rgb(240,242,244)" fill-opacity="1" d=" M9.593999862670898,0.13500000536441803 C4.073999881744385,0.13500000536441803 -0.4059999883174896,4.627999782562256 -0.4059999883174896,10.14799976348877 C-0.3959999978542328,10.128000259399414 19.604000091552734,10.114999771118164 19.5939998626709,10.135000228881836 C19.5939998626709,4.614999771118164 15.11400032043457,0.13500000536441803 9.593999862670898,0.13500000536441803z"></path></g></g></g></svg>