<svg xmlns="http://www.w3.org/2000/svg" viewBox="0 0 1500 1500" class="yXJMw" preserveAspectRatio="xMidYMid meet"><defs><clipPath id="__lottie_element_2"><rect width="1500" height="1500" x="0" y="0"></rect></clipPath><clipPath id="__lottie_element_4"><path d="M0,0 L210,0 L210,210 L0,210z"></path></clipPath><clipPath id="__lottie_element_11"><path d="M0,0 L210,0 L210,210 L0,210z"></path></clipPath><linearGradient id="__lottie_element_27" spreadMethod="pad" gradientUnits="userSpaceOnUse" x1="11.385000228881836" y1="13.565999984741211" x2="23.400999069213867" y2="24.1299991607666"><stop offset="0%" stop-color="rgb(0,0,0)" stop-opacity="0"></stop><stop offset="50%" stop-color="rgb(0,0,0)" stop-opacity="0.10000000149011612"></stop><stop offset="100%" stop-color="rgb(0,0,0)" stop-opacity="0.20000000298023224"></stop></linearGradient><filter id="__lottie_element_32" filterUnits="objectBoundingBox" x="0%" y="0%" width="100%" height="100%"><feComponentTransfer in="SourceGraphic"><feFuncA type="table" tableValues="1.0 0.0"></feFuncA></feComponentTransfer></filter><mask id="__lottie_element_31" mask-type="alpha"><g filter="url(#__lottie_element_32)"><rect width="1500" height="1500" x="0" y="0" fill="#ffffff" opacity="0"></rect><g transform="matrix(1,0,0,1,500,250)" opacity="1" style="display: block;"><g opacity="1" transform="matrix(31.25,0,0,31.25,0,0)"><path fill="url(#__lottie_element_35)" fill-rule="evenodd" fill-opacity="1" d=" M12,0 C18.622800827026367,0 24,5.377200126647949 24,12 C24,18.622800827026367 18.622800827026367,24 12,24 C5.377200126647949,24 0,18.622800827026367 0,12 C0,5.377200126647949 5.377200126647949,0 12,0z"></path><path fill-rule="evenodd" fill="rgb(240,242,244)" fill-opacity="0.8" d=" M12,0 C18.622800827026367,0 24,5.377200126647949 24,12 C24,18.622800827026367 18.622800827026367,24 12,24 C5.377200126647949,24 0,18.622800827026367 0,12 C0,5.377200126647949 5.377200126647949,0 12,0z"></path></g></g></g></mask><linearGradient id="__lottie_element_35" spreadMethod="pad" gradientUnits="userSpaceOnUse" x1="11.385000228881836" y1="13.565999984741211" x2="23.400999069213867" y2="24.1299991607666"><stop offset="0%" stop-color="rgb(0,0,0)" stop-opacity="0"></stop><stop offset="50%" stop-color="rgb(0,0,0)" stop-opacity="0.10000000149011612"></stop><stop offset="100%" stop-color="rgb(0,0,0)" stop-opacity="0.20000000298023224"></stop></linearGradient></defs><g clip-path="url(#__lottie_element_2)"><g mask="url(#__lottie_element_31)" style="display: block;"><g transform="matrix(1,0,0,1,250,687.5)" opacity="0.9999901411286994"><g opacity="1" transform="matrix(31.25,0,0,31.25,0,0)"><path fill="rgb(240,242,244)" fill-opacity="1" d=" M10,0 C4.480000019073486,0 0,4.480000019073486 0,10 C0.009999999776482582,9.979999542236328 20.010000228881836,9.979999542236328 20,10 C20,4.480000019073486 15.520000457763672,0 10,0z"></path></g></g></g><g transform="matrix(1,0,0,1,728.75,731)" opacity="1" style="display: block;"><path stroke-linecap="butt" stroke-linejoin="miter" fill-opacity="0" stroke-miterlimit="4" stroke="rgb(251,188,4)" stroke-opacity="1" stroke-width="30" d=" M-224.63,-466.44 C-92.39,-466.44 14.98,-360.81 14.98,-230.72 C14.98,-100.63 -92.39,5 -224.63,5 C-356.88,5 -464.25,-100.63 -464.25,-230.72 C-464.25,-360.81 -356.88,-466.44 -224.63,-466.44z"></path><g opacity="1" transform="matrix(1.3110100030899048,0,0,1.2896699905395508,-224.63424682617188,-230.71823120117188)"></g></g><g transform="matrix(1,0,0,1,500,250)" opacity="1" style="display: block;"><g opacity="1" transform="matrix(31.25,0,0,31.25,0,0)"><path fill="url(#__lottie_element_27)" fill-rule="evenodd" fill-opacity="0.5" d=" M12,0 C18.622800827026367,0 24,5.377200126647949 24,12 C24,18.622800827026367 18.622800827026367,24 12,24 C5.377200126647949,24 0,18.622800827026367 0,12 C0,5.377200126647949 5.377200126647949,0 12,0z"></path><path fill-rule="evenodd" fill="rgb(240,242,244)" fill-opacity="0.8" d=" M12,0 C18.622800827026367,0 24,5.377200126647949 24,12 C24,18.622800827026367 18.622800827026367,24 12,24 C5.377200126647949,24 0,18.622800827026367 0,12 C0,5.377200126647949 5.377200126647949,0 12,0z"></path></g></g><g transform="matrix(1.5499999523162842,0,0,1.5499999523162842,744.0999755859375,818.6500244140625)" opacity="1" style="mix-blend-mode: multiply; display: block;"><g opacity="1" transform="matrix(1,0,0,1,88,117)"><path fill="rgb(251,188,4)" fill-opacity="1" d=" M-29.33300018310547,-117 C-29.33300018310547,-117 -88,0 -88,0 C-88,0 -35.20000076293945,0 -35.20000076293945,0 C-35.20000076293945,0 -41.74100112915039,117 -41.74100112915039,117 C-41.74100112915039,117 87.32499694824219,-29.25 87.32499694824219,-29.25 C87.32499694824219,-29.25 41.051998138427734,-29.25 41.051998138427734,-29.25 C41.051998138427734,-29.25 88,-117 88,-117 C88,-117 -29.33300018310547,-117 -29.33300018310547,-117z"></path></g></g><g transform="matrix(1.5499999523162842,0,0,1.5499999523162842,744.0999755859375,818.6500244140625)" opacity="1" style="display: block;"><g opacity="1" transform="matrix(1,0,0,1,88,117)"><path fill="rgb(255,255,255)" fill-opacity="0.03" d=" M-29.33300018310547,-117 C-29.33300018310547,-117 -88,0 -88,0 C-88,0 -35.20000076293945,0 -35.20000076293945,0 C-35.20000076293945,0 -41.74100112915039,117 -41.74100112915039,117 C-41.74100112915039,117 87.32499694824219,-29.25 87.32499694824219,-29.25 C87.32499694824219,-29.25 41.051998138427734,-29.25 41.051998138427734,-29.25 C41.051998138427734,-29.25 88,-117 88,-117 C88,-117 -29.33300018310547,-117 -29.33300018310547,-117z"></path></g></g><g clip-path="url(#__lottie_element_11)" transform="matrix(0.8999999761581421,0,0,0.8999999761581421,1022.5,550.5)" opacity="1" style="display: block;"><g transform="matrix(7.513009548187256,-7.513009548187256,7.513009548187256,7.513009548187256,-15,122.5)" opacity="1" style="display: block;"><g opacity="1" transform="matrix(1,0,0,1,0,0)"><path fill="rgb(66,133,244)" fill-opacity="1" d=" M16,0 C16,0 16,8 16,8 C16,8 8,8 8,8 C8,8 8,0 8,0 C8,0 16,0 16,0z M8,0 C12.415200233459473,0 16,3.5848000049591064 16,8 C16,12.415200233459473 12.415200233459473,16 8,16 C3.5848000049591064,16 0,12.415200233459473 0,8 C0,3.5848000049591064 3.5848000049591064,0 8,0z"></path><g opacity="1" transform="matrix(1,0,0,1,0,0)"></g><g opacity="1" transform="matrix(1,0,0,1,0,0)"></g></g></g></g><g clip-path="url(#__lottie_element_4)" style="display: block;" transform="matrix(0.8999999761581421,0,0,0.8999999761581421,1022.5,1014.5)" opacity="1"><g transform="matrix(7.513009548187256,-7.513009548187256,7.513009548187256,7.513009548187256,-15,122.5)" opacity="1" style="display: block;"><g opacity="1" transform="matrix(1,0,0,1,0,0)"><path fill="rgb(66,133,244)" fill-opacity="1" d=" M16,0 C16,0 16,8 16,8 C16,8 8,8 8,8 C8,8 8,0 8,0 C8,0 16,0 16,0z M8,0 C12.415200233459473,0 16,3.5848000049591064 16,8 C16,12.415200233459473 12.415200233459473,16 8,16 C3.5848000049591064,16 0,12.415200233459473 0,8 C0,3.5848000049591064 3.5848000049591064,0 8,0z"></path><g opacity="1" transform="matrix(1,0,0,1,0,0)"></g><g opacity="1" transform="matrix(1,0,0,1,0,0)"></g></g></g></g></g></svg>